<?xml version="1.0" encoding="UTF-8"?>
<svg version="1.1" xmlns="http://www.w3.org/2000/svg" width="378" height="506">
<path d="M0 0 C124.74 0 249.48 0 378 0 C378 166.98 378 333.96 378 506 C253.26 506 128.52 506 0 506 C0 339.02 0 172.04 0 0 Z " fill="#F5F2ED" transform="translate(0,0)"/>
<path d="M0 0 C80.52 0 161.04 0 244 0 C247 57 247 57 247 78 C240.73 78 234.46 78 228 78 C227.773125 76.2675 227.54625 74.535 227.3125 72.75 C224.89669796 58.57174115 217.76673805 46.06265124 206.640625 36.84765625 C185.46989006 22.03440533 158.38600266 24.49460039 133.75 24.3125 C122.9425 24.209375 112.135 24.10625 101 24 C101 62.28 101 100.56 101 140 C110.36375 139.9175 119.7275 139.835 129.375 139.75 C132.31196777 139.73420898 135.24893555 139.71841797 138.27490234 139.70214844 C140.62860037 139.67275684 142.98228106 139.64192717 145.3359375 139.609375 C146.53710205 139.60824707 147.7382666 139.60711914 148.97583008 139.60595703 C158.84773829 139.43963353 167.17051754 137.52958005 174.53515625 130.6328125 C181.37263697 123.01130066 182.2738019 113.8036743 183 104 C188.94 104 194.88 104 201 104 C201 136.01 201 168.02 201 201 C195.06 201 189.12 201 183 201 C182.7525 198.89625 182.505 196.7925 182.25 194.625 C180.64114911 183.68261008 177.5604699 175.38491241 169 168 C162.83836643 164.28248108 156.62695112 162.91191723 149.4753418 162.79467773 C148.39459885 162.77473251 147.3138559 162.75478729 146.20036316 162.73423767 C145.0449855 162.71752518 143.88960785 162.70081268 142.69921875 162.68359375 C140.91195122 162.6524221 140.91195122 162.6524221 139.08857727 162.62062073 C135.28827597 162.55531821 131.48790648 162.49632982 127.6875 162.4375 C125.10871695 162.39429644 122.52994076 162.35068156 119.95117188 162.30664062 C113.63418634 162.19965655 107.3171332 162.09785445 101 162 C101.06139849 174.44012444 101.13863891 186.88004233 101.23571491 199.31994247 C101.28030912 205.09723242 101.31958917 210.87445363 101.34643555 216.65185547 C101.37257798 222.23465372 101.4130571 227.81718586 101.46318626 233.39981842 C101.47978125 235.5222567 101.49134114 237.64474092 101.49761391 239.7672348 C100.9499298 259.56934595 100.9499298 259.56934595 109 277 C117.84084757 285.59526847 130.10858386 285.15645318 141.6640625 285.203125 C142.77373383 285.20882507 143.88340515 285.21452515 145.02670288 285.22039795 C147.36821552 285.22980995 149.70974117 285.23636674 152.05126953 285.24023438 C155.59301483 285.2499126 159.13417247 285.28096209 162.67578125 285.3125 C185.14745318 285.41831479 205.89818856 282.37059832 223.125 266.4375 C234.67467078 254.20006648 240.72643155 238.98631159 245 223 C251.6 223 258.2 223 265 223 C264.38399187 236.18844066 263.58864083 249.33799844 262.5625 262.5 C261.31603577 278.66287033 260.15501224 294.82982866 259 311 C173.53 311 88.06 311 0 311 C0 305.06 0 299.12 0 293 C1.876875 292.9175 3.75375 292.835 5.6875 292.75 C15.63917992 291.95863548 27.14609278 289.95120764 34 282 C38.27478208 274.21289698 39.149045 266.60691179 39.14717102 257.89291382 C39.15084771 256.97352008 39.1545244 256.05412635 39.1583125 255.1068722 C39.1693291 252.02485574 39.17318975 248.94287303 39.17700195 245.86083984 C39.18326813 243.65137628 39.18991507 241.44191376 39.19691467 239.23245239 C39.21793911 231.9752882 39.22831557 224.71812384 39.23828125 217.4609375 C39.24232941 214.96089288 39.24644635 212.46084838 39.25063133 209.96080399 C39.26749754 199.56022405 39.2821321 189.15964568 39.28938007 178.75905418 C39.29128979 176.06251397 39.29321015 173.36597377 39.29516602 170.66943359 C39.29589163 169.66418457 39.29589163 169.66418457 39.2966319 168.63862748 C39.30492739 157.78902579 39.33025808 146.93953451 39.36274669 136.089981 C39.3958682 124.9376816 39.41350101 113.78542207 39.41702431 102.63306963 C39.41937299 96.37680028 39.42831017 90.12070556 39.45348549 83.86448288 C39.47679826 77.97605152 39.48098635 72.0879094 39.47072411 66.19944382 C39.47022942 64.04322344 39.47652986 61.88698866 39.49028015 59.73081207 C39.56252504 47.72645721 39.42282854 37.82500433 33.375 27.125 C24.36604999 19.06436051 11.66568352 16.97214029 0 16 C0 10.72 0 5.44 0 0 Z " fill="#142645" transform="translate(53,136)"/>
<path d="M0 0 C8.72818547 0.18252859 16.15717049 1.70888524 22.8515625 7.640625 C29.37647107 14.7762393 31.36917798 23.18565678 31.2109375 32.6484375 C30.03382928 45.77101433 20.99532136 56.30744507 11.54492188 64.71679688 C7.69982664 67.91051062 3.58672481 70.073448 -1 72 C-1.93714844 72.40992187 -2.87429687 72.81984375 -3.83984375 73.2421875 C-21.75474425 79.9285725 -41.11793355 75.29648184 -59.23362732 71.81207275 C-79.08121517 67.99637113 -99.55163087 66.12953499 -118 76 C-119.35387289 76.97201131 -120.69855198 77.95884159 -122 79 C-122.66 79 -123.32 79 -124 79 C-124.68443744 64.18953438 -123.12058678 51.65461273 -113 40 C-107.97152349 34.78159901 -102.77860485 30.64850712 -96 28 C-95.11441406 27.64808594 -94.22882813 27.29617187 -93.31640625 26.93359375 C-79.96751656 23.1757791 -65.89635594 26.39052801 -52.75 29.5 C-32.24317812 34.66904663 -32.24317812 34.66904663 -12.015625 30.3125 C-5.6626205 26.17565986 -3.23823995 21.20637355 -1.5234375 13.93359375 C-0.69834822 9.30939933 -0.26292193 4.68726336 0 0 Z " fill="#E7A01C" transform="translate(238,17)"/>
<path d="M0 0 C80.52 0 161.04 0 244 0 C245.125 16.875 245.125 16.875 245.09765625 23.46484375 C245.09553383 24.49841759 245.09553383 24.49841759 245.09336853 25.5528717 C245.08792192 27.68113209 245.07540425 29.80927331 245.0625 31.9375 C245.057465 33.41080574 245.0529057 34.88411318 245.04882812 36.35742188 C245.03800377 39.9049844 245.02085455 43.45248052 245 47 C244.67 47 244.34 47 244 47 C243.71138979 42.19878489 243.42672022 37.39735722 243.14550781 32.59570312 C243.04955334 30.96640913 242.95257136 29.33717528 242.85449219 27.70800781 C242.71270826 25.34976499 242.57477218 22.99132176 242.4375 20.6328125 C242.39375244 19.91884308 242.35000488 19.20487366 242.30493164 18.4692688 C241.98926932 12.95113262 242 7.55384264 242 2 C162.8 2 83.6 2 2 2 C2 6.29 2 10.58 2 15 C3.4025 14.95875 4.805 14.9175 6.25 14.875 C10.1599209 14.76000233 11.25631258 15.12815629 15 17 C10.05 16.67 5.1 16.34 0 16 C0 10.72 0 5.44 0 0 Z " fill="#030B1F" transform="translate(53,136)"/>
<path d="M0 0 C1.29855927 0.00213753 1.29855927 0.00213753 2.62335205 0.00431824 C3.60487244 0.00124161 4.58639282 -0.00183502 5.59765625 -0.00500488 C6.66220032 0.00218063 7.72674438 0.00936615 8.82354736 0.01676941 C10.46266083 0.01745674 10.46266083 0.01745674 12.1348877 0.01815796 C14.45169151 0.02118394 16.76849322 0.02908047 19.08526611 0.04142761 C22.62310038 0.05959147 26.16067151 0.06193793 29.69854736 0.06169128 C31.94854962 0.06661012 34.1985501 0.07244003 36.44854736 0.07926941 C37.50499451 0.08038223 38.56144165 0.08149506 39.64990234 0.0826416 C44.5082099 0.11381993 49.12720773 0.22406569 53.90167236 1.24723816 C53.90167236 1.57723816 53.90167236 1.90723816 53.90167236 2.24723816 C35.42167236 2.24723816 16.94167236 2.24723816 -2.09832764 2.24723816 C-1.76832764 36.89723816 -1.43832764 71.54723816 -1.09832764 107.24723816 C-3.64716794 103.4239777 -4.22144209 100.58985549 -4.23204041 96.05921936 C-4.23630539 95.23202393 -4.24057037 94.40482849 -4.2449646 93.55256653 C-4.24451141 92.65371735 -4.24405823 91.75486816 -4.24359131 90.82878113 C-4.24694992 89.87555969 -4.25030853 88.92233826 -4.25376892 87.94023132 C-4.26326716 84.78994952 -4.26522116 81.63972089 -4.26629639 78.48942566 C-4.26950864 76.30274941 -4.27287269 74.11607338 -4.27638245 71.92939758 C-4.2823701 67.34800213 -4.28422261 62.76662553 -4.28363037 58.18522644 C-4.28352852 52.3024655 -4.29720647 46.41982463 -4.31440258 40.53709221 C-4.32549373 36.02308084 -4.32755051 31.50909883 -4.32702065 26.99507523 C-4.32820414 24.82525848 -4.33264642 22.65544105 -4.34035301 20.48563766 C-4.35009913 17.45930674 -4.34729676 14.43324089 -4.34124756 11.40690613 C-4.34686707 10.50400848 -4.35248657 9.60111084 -4.35827637 8.67085266 C-4.31660368 0.50860939 -4.31660368 0.50860939 0 0 Z " fill="#01061A" transform="translate(156.09832763671875,295.7527618408203)"/>
<path d="M0 0 C0.33 0 0.66 0 1 0 C1.75201631 6.01536222 2.14174489 11.85831637 2.11352539 17.91625977 C2.11367142 18.75638107 2.11381744 19.59650238 2.1139679 20.46208191 C2.11327803 23.20521742 2.10552954 25.94828278 2.09765625 28.69140625 C2.09578877 30.60668399 2.09436643 32.52196221 2.09336853 34.4372406 C2.0895693 39.45294538 2.07976144 44.46862073 2.06866455 49.48431396 C2.05839438 54.61258547 2.05385895 59.74086178 2.04882812 64.86914062 C2.03813661 74.91277536 2.02056109 84.95638062 2 95 C-3.94 95 -9.88 95 -16 95 C-16 91.37 -16 87.74 -16 84 C-15.67 84 -15.34 84 -15 84 C-14.67 86.97 -14.34 89.94 -14 93 C-9.38 93 -4.76 93 0 93 C0 62.31 0 31.62 0 0 Z " fill="#02091D" transform="translate(252,242)"/>
<path d="M0 0 C4.875 1.75 4.875 1.75 6 4 C5.4765625 6.34765625 5.4765625 6.34765625 4.625 9.0625 C4.34914062 9.96097656 4.07328125 10.85945313 3.7890625 11.78515625 C3 14 3 14 2 15 C4.31 15.33 6.62 15.66 9 16 C9 16.33 9 16.66 9 17 C6.75026553 17.054138 4.50015617 17.09285491 2.25 17.125 C0.99703125 17.14820312 -0.2559375 17.17140625 -1.546875 17.1953125 C-4.72820492 17.01537302 -6.36521896 16.68998582 -9 15 C-6.69 15 -4.38 15 -2 15 C-1.67 13.35 -1.34 11.7 -1 10 C-1.99 9.67 -2.98 9.34 -4 9 C-4 7.02 -4 5.04 -4 3 C-2.68 3 -1.36 3 0 3 C0 2.01 0 1.02 0 0 Z " fill="#E59D17" transform="translate(208,76)"/>
<path d="M0 0 C2.62005514 2.37052608 4.20308465 4.9779151 6 8 C6.33 8 6.66 8 7 8 C8.03590199 13.05002222 8.10251672 17.87416389 8 23 C7.01 23 6.02 23 5 23 C4.67 22.01 4.34 21.02 4 20 C3.34 20 2.68 20 2 20 C2.33 18.68 2.66 17.36 3 16 C3.66 16 4.32 16 5 16 C4.67 13.69 4.34 11.38 4 9 C2.02 9.33 0.04 9.66 -2 10 C-2 9.34 -2 8.68 -2 8 C-2.66 8 -3.32 8 -4 8 C-3.67 6.35 -3.34 4.7 -3 3 C-2.34 3 -1.68 3 -1 3 C-0.67 2.01 -0.34 1.02 0 0 Z " fill="#EBA527" transform="translate(261,29)"/>
<path d="M0 0 C0.99 0.66 1.98 1.32 3 2 C2.0022242 4.99332739 1.2477975 5.94766315 -1 8 C4.88894359 7.72736372 9.26066643 6.73617522 14.37109375 3.7421875 C14.90863281 3.49726562 15.44617188 3.25234375 16 3 C16.66 3.33 17.32 3.66 18 4 C10.48505994 8.49475138 3.01178309 12.69321408 -6 12 C-4.68 11.67 -3.36 11.34 -2 11 C-2 10.34 -2 9.68 -2 9 C-3.98 9.33 -5.96 9.66 -8 10 C-7.34 9.67 -6.68 9.34 -6 9 C-6 8.34 -6 7.68 -6 7 C-6.66 7 -7.32 7 -8 7 C-7.67 5.35 -7.34 3.7 -7 2 C-5.02 2.99 -3.04 3.98 -1 5 C-0.67 3.35 -0.34 1.7 0 0 Z " fill="#E7A01B" transform="translate(228,80)"/>
<path d="M0 0 C1.15218018 -0.0009668 1.15218018 -0.0009668 2.32763672 -0.00195312 C6.57036791 0.03855028 10.57243454 0.35597821 14.75 1.1875 C14.75 1.5175 14.75 1.8475 14.75 2.1875 C14.1108667 2.21255615 13.4717334 2.2376123 12.81323242 2.26342773 C9.85453255 2.38107147 6.89602406 2.50301778 3.9375 2.625 C2.43026367 2.68397461 2.43026367 2.68397461 0.89257812 2.74414062 C-5.84592939 3.02581457 -12.53952975 3.51239406 -19.25 4.1875 C-19.25 3.5275 -19.25 2.8675 -19.25 2.1875 C-12.83998383 0.38367635 -6.61708604 -0.00538084 0 0 Z " fill="#F7EFDE" transform="translate(150.25,84.8125)"/>
<path d="M0 0 C19.00455581 -0.3690205 19.00455581 -0.3690205 27 2 C27 4.31 27 6.62 27 9 C26.01 9 25.02 9 24 9 C23.67 8.34 23.34 7.68 23 7 C23.66 6.01 24.32 5.02 25 4 C21.37 3.34 17.74 2.68 14 2 C13.67 3.32 13.34 4.64 13 6 C12.34 6 11.68 6 11 6 C10.67 4.68 10.34 3.36 10 2 C6.7 1.67 3.4 1.34 0 1 C0 0.67 0 0.34 0 0 Z " fill="#E39010" transform="translate(151,43)"/>
<path d="M0 0 C2 2 2 2 2.265625 4.96875 C2.26046875 6.1340625 2.2553125 7.299375 2.25 8.5 C2.25515625 9.6653125 2.2603125 10.830625 2.265625 12.03125 C2 15 2 15 0 17 C-1.97119141 17.22705078 -1.97119141 17.22705078 -4.3515625 17.1953125 C-5.20234375 17.18886719 -6.053125 17.18242187 -6.9296875 17.17578125 C-8.26386719 17.15064453 -8.26386719 17.15064453 -9.625 17.125 C-10.97078125 17.11146484 -10.97078125 17.11146484 -12.34375 17.09765625 C-14.56276586 17.0740497 -16.78125077 17.0411231 -19 17 C-19 16.67 -19 16.34 -19 16 C-13.06 16 -7.12 16 -1 16 C-1.0309375 12.8753125 -1.0309375 12.8753125 -1.0625 9.6875 C-1.125 3.375 -1.125 3.375 0 0 Z " fill="#C6C7C9" transform="translate(301,198)"/>
<path d="M0 0 C0.66 0.33 1.32 0.66 2 1 C2 2.32 2 3.64 2 5 C1.34 5 0.68 5 0 5 C-0.33 6.32 -0.66 7.64 -1 9 C-1.66 9 -2.32 9 -3 9 C-3 7.35 -3 5.7 -3 4 C-4.27310312 4.93441535 -5.543388 5.87267111 -6.8125 6.8125 C-7.87404297 7.59560547 -7.87404297 7.59560547 -8.95703125 8.39453125 C-10.78531393 9.83128877 -12.39896688 11.31815763 -14 13 C-14.66 12.67 -15.32 12.34 -16 12 C-11.38720369 6.85324656 -6.52228462 2.55046568 0 0 Z " fill="#E69210" transform="translate(140,46)"/>
<path d="M0 0 C1.1875 1.6875 1.1875 1.6875 2 4 C1.25 6.6875 1.25 6.6875 -1 9 C-4.32678091 9.73691134 -7.5990457 9.92981145 -11 10 C-11.66 8.02 -12.32 6.04 -13 4 C-12.34 4 -11.68 4 -11 4 C-11 4.99 -11 5.98 -11 7 C-7.51190809 6.22969878 -7.51190809 6.22969878 -4 5 C-3.67 4.01 -3.34 3.02 -3 2 C-2.01 1.34 -1.02 0.68 0 0 Z " fill="#EAA626" transform="translate(170,76)"/>
<path d="M0 0 C7.06266942 0.15353629 11.78432954 3.39139938 17 8 C19.41461061 10.79512318 21.5973335 13.56632319 23 17 C22.64453125 19.26953125 22.64453125 19.26953125 22 21 C21.64808594 20.34773438 21.29617187 19.69546875 20.93359375 19.0234375 C15.58188503 9.54965548 10.12141198 4.90167809 0 1 C0 0.67 0 0.34 0 0 Z " fill="#0B0D17" transform="translate(211,298)"/>
<path d="M0 0 C0.66 0.33 1.32 0.66 2 1 C-5.51494006 5.49475138 -12.98821691 9.69321408 -22 9 C-20.68 8.67 -19.36 8.34 -18 8 C-18.33 7.01 -18.66 6.02 -19 5 C-17 4 -17 4 -14.5625 4.75 C-9.70265493 5.09104176 -6.65536352 3.22188071 -2.390625 1.03125 C-1.60171875 0.6909375 -0.8128125 0.350625 0 0 Z " fill="#E79311" transform="translate(244,83)"/>
<path d="M0 0 C0.33 0 0.66 0 1 0 C1.33 2.97 1.66 5.94 2 9 C6.62 9 11.24 9 16 9 C15.67 9.66 15.34 10.32 15 11 C10.05 11 5.1 11 0 11 C0 7.37 0 3.74 0 0 Z " fill="#030818" transform="translate(236,326)"/>
<path d="M0 0 C8.91 0.66 17.82 1.32 27 2 C27 2.33 27 2.66 27 3 C21.39 3 15.78 3 10 3 C10 3.66 10 4.32 10 5 C8.68 4.67 7.36 4.34 6 4 C6 3.34 6 2.68 6 2 C4.35 2 2.7 2 1 2 C0.67 1.34 0.34 0.68 0 0 Z " fill="#1B2F51" transform="translate(174,422)"/>
<path d="M0 0 C0.66 0.33 1.32 0.66 2 1 C2.33333333 2.66666667 2.66666667 4.33333333 3 6 C3.66 6.33 4.32 6.66 5 7 C5.33 6.34 5.66 5.68 6 5 C6 5.66 6 6.32 6 7 C6.99 6.67 7.98 6.34 9 6 C10.32 6.66 11.64 7.32 13 8 C3.595 8.495 3.595 8.495 -6 9 C-4.68 8.34 -3.36 7.68 -2 7 C-0.77227414 4.54454828 0 2.7523245 0 0 Z " fill="#EAA727" transform="translate(141,76)"/>
<path d="M0 0 C0 0.66 0 1.32 0 2 C-0.99 2.495 -0.99 2.495 -2 3 C-1.4225 3.144375 -0.845 3.28875 -0.25 3.4375 C1.83333333 3.95833333 3.91666667 4.47916667 6 5 C-0.625 8.125 -0.625 8.125 -4 7 C-5.1875 4.4375 -5.1875 4.4375 -6 2 C-2.25 0 -2.25 0 0 0 Z " fill="#E59817" transform="translate(125,83)"/>
<path d="M0 0 C5.23880078 0.55145271 9.97350697 1.42922093 15 3 C15 3.66 15 4.32 15 5 C13.68 5 12.36 5 11 5 C10.67 5.66 10.34 6.32 10 7 C9.67 6.01 9.34 5.02 9 4 C8.236875 4.020625 7.47375 4.04125 6.6875 4.0625 C4 4 4 4 1 3 C0.67 2.01 0.34 1.02 0 0 Z " fill="#E59313" transform="translate(179,46)"/>
<path d="M0 0 C-0.33 0.33 -0.66 0.66 -1 1 C1.31 1.33 3.62 1.66 6 2 C6 2.33 6 2.66 6 3 C3.75026553 3.054138 1.50015617 3.09285491 -0.75 3.125 C-2.00296875 3.14820312 -3.2559375 3.17140625 -4.546875 3.1953125 C-7.72820492 3.01537302 -9.36521896 2.68998582 -12 1 C-10.56496445 0.63597631 -9.12683494 0.28413409 -7.6875 -0.0625 C-6.88699219 -0.25972656 -6.08648437 -0.45695312 -5.26171875 -0.66015625 C-3 -1 -3 -1 0 0 Z " fill="#E6920D" transform="translate(211,90)"/>
<path d="M0 0 C0.99 0.33 1.98 0.66 3 1 C4.125 5.75 4.125 5.75 3 8 C3.66 8 4.32 8 5 8 C4.67 8.66 4.34 9.32 4 10 C2.68 9.67 1.36 9.34 0 9 C0.33 7.68 0.66 6.36 1 5 C0.34 4.67 -0.32 4.34 -1 4 C-0.67 2.68 -0.34 1.36 0 0 Z " fill="#E8A21F" transform="translate(233,40)"/>
<path d="M0 0 C9.41002278 -0.18451025 9.41002278 -0.18451025 14 1 C14 1.33 14 1.66 14 2 C9.38 2.33 4.76 2.66 0 3 C0 2.01 0 1.02 0 0 Z " fill="#C8C8CC" transform="translate(53,152)"/>
<path d="M0 0 C2.31 0.33 4.62 0.66 7 1 C6.34 2.32 5.68 3.64 5 5 C4.34 4.67 3.68 4.34 3 4 C2.67 4.99 2.34 5.98 2 7 C1.34 7 0.68 7 0 7 C0 4.69 0 2.38 0 0 Z " fill="#E8A524" transform="translate(182,48)"/>
<path d="M0 0 C0.66 0 1.32 0 2 0 C0.5682479 5.01113235 -1.98445693 6.94469549 -6 10 C-6.66 9.34 -7.32 8.68 -8 8 C-6.6875 6.5 -6.6875 6.5 -5 5 C-4.01 5 -3.02 5 -2 5 C-2 4.34 -2 3.68 -2 3 C-1.34 3 -0.68 3 0 3 C0 2.01 0 1.02 0 0 Z " fill="#E7E7E8" transform="translate(87,414)"/>
<path d="M0 0 C0.99 0 1.98 0 3 0 C3 2.97 3 5.94 3 9 C2.01 9.33 1.02 9.66 0 10 C0 6.7 0 3.4 0 0 Z " fill="#EAE9E7" transform="translate(312,435)"/>
<path d="M0 0 C0.804375 0.4640625 0.804375 0.4640625 1.625 0.9375 C4.3984957 2.17827439 7.00042837 2.5909675 10 3 C9.67 3.99 9.34 4.98 9 6 C8.67 5.34 8.34 4.68 8 4 C7.278125 4.185625 6.55625 4.37125 5.8125 4.5625 C2.87173027 5.01995307 0.85896942 4.73516357 -2 4 C-2 3.34 -2 2.68 -2 2 C-1.34 2 -0.68 2 0 2 C0 1.34 0 0.68 0 0 Z " fill="#E9A524" transform="translate(194,49)"/>
<path d="M0 0 C0.33 0 0.66 0 1 0 C1.2226746 1.43534841 1.42761906 2.87345525 1.625 4.3125 C1.74101562 5.11300781 1.85703125 5.91351563 1.9765625 6.73828125 C2 9 2 9 0 12 C-0.33 11.67 -0.66 11.34 -1 11 C-0.91015699 9.14227838 -0.75388139 7.28752015 -0.5625 5.4375 C-0.46066406 4.42558594 -0.35882813 3.41367187 -0.25390625 2.37109375 C-0.17011719 1.58863281 -0.08632812 0.80617188 0 0 Z " fill="#E69310" transform="translate(238,23)"/>
</svg>
